<svg width="170" height="24" viewBox="0 0 170 24" fill="none" xmlns="http://www.w3.org/2000/svg" class="brand brand-mobile" data-v-83643949=""><g id="Livello_1" style="mix-blend-mode:difference;" clip-path="url(#clip0_2781_24371)"><path id="Vector" d="M86.402 18C85.9114 18 85.4838 18.3144 85.3202 18.7799C84.7416 20.5031 83.1693 21.6604 81.3831 21.6604C80.2385 21.6604 79.1316 21.1698 78.3391 20.3019C77.5467 19.4339 77.1567 18.2893 77.2322 17.0943C77.3831 15.0189 79.0184 13.3333 81.0561 13.1698C82.9555 13.0314 84.7039 14.2012 85.3076 16.0377C85.4586 16.5031 85.8988 16.8176 86.3894 16.8176C86.7668 16.8176 87.1064 16.6415 87.3202 16.327C87.5341 16.0126 87.597 15.6226 87.4712 15.2578C87.2573 14.6163 86.9429 14.0126 86.5404 13.4717C86.2259 13.044 86.0624 12.5283 86.0624 11.9874C86.0624 11.4465 86.2259 10.9308 86.5404 10.5031C86.9429 9.96225 87.2448 9.35847 87.4712 8.71696C87.597 8.35218 87.5341 7.96225 87.3202 7.64778C87.1064 7.33332 86.7668 7.15722 86.3894 7.15722C85.8988 7.15722 85.4712 7.47168 85.3076 7.93709C84.6913 9.77357 82.9429 10.9434 81.0561 10.805C79.0184 10.6541 77.3831 8.96854 77.2322 6.88049C77.1441 5.68552 77.5341 4.55344 78.3391 3.67294C79.119 2.81759 80.2385 2.31445 81.3831 2.31445C83.1567 2.31445 84.7416 3.47168 85.3202 5.19495C85.4712 5.66036 85.9114 5.97483 86.402 5.97483C86.7668 5.97483 87.119 5.78615 87.3328 5.48426C87.5466 5.18237 87.597 4.80501 87.4838 4.44023C86.5404 1.61005 83.8485 -0.213853 80.9303 -1.65291e-05C77.7227 0.226399 75.1567 2.86791 74.9555 6.15093C74.8674 7.522 75.1945 8.85533 75.8989 10.0126C76.2636 10.6038 76.4523 11.283 76.4523 11.9748C76.4523 12.6666 76.2636 13.3459 75.8989 13.9371C75.1945 15.0943 74.8674 16.4277 74.9555 17.7987C75.1567 21.0817 77.7227 23.7233 80.9303 23.9497C83.8485 24.1635 86.5404 22.327 87.4838 19.4968C87.597 19.1446 87.5466 18.7673 87.3328 18.4528C87.119 18.1509 86.7668 17.9622 86.402 17.9622" fill="white"></path><path id="Vector_2" d="M97.7481 12.8302C97.9619 12.8302 98.1128 13.0314 98.0625 13.2327C97.7481 14.6038 96.5405 15.6604 94.7544 15.6604C92.5405 15.6604 91.1191 14.239 91.1191 12C91.1191 10.4025 92.0877 8.3396 94.7544 8.3396C96.1254 8.3396 97.6097 8.93079 97.9996 10.4528C98.05 10.6666 97.899 10.8679 97.6852 10.8679H97.6474C97.4965 10.8679 97.3581 10.7673 97.3204 10.6289C97.0185 9.47167 95.9116 9.00627 94.7544 9.00627C93.0562 9.00627 91.8864 9.97482 91.8864 12.0126C91.8864 13.5723 92.6789 15.0188 94.7544 15.0188C96.2764 15.0188 97.0688 14.2893 97.3707 13.1069C97.4084 12.956 97.5342 12.8427 97.6852 12.8427H97.7481V12.8302Z" fill="white"></path><path id="Vector_3" d="M103.07 8.32703C105.007 8.32703 106.78 9.53457 106.78 11.9874C106.78 14.4402 105.007 15.6478 103.07 15.6478C101.132 15.6478 99.3589 14.4402 99.3589 11.9874C99.3589 9.53457 101.132 8.32703 103.07 8.32703ZM103.07 14.9937C104.566 14.9937 106.013 14.1006 106.013 11.9874C106.013 9.8742 104.566 8.98111 103.07 8.98111C101.573 8.98111 100.126 9.8742 100.126 11.9874C100.126 14.1006 101.573 14.9937 103.07 14.9937Z" fill="white"></path><path id="Vector_4" d="M115.71 8.50312H115.811C116.125 8.50312 116.364 8.75469 116.364 9.06916V15.1446C116.364 15.3333 116.213 15.4717 116.037 15.4717H115.974C115.798 15.4717 115.647 15.3207 115.647 15.1446V9.44651H115.622L112.704 15.2956C112.654 15.4088 112.54 15.4717 112.415 15.4717H112.163C112.037 15.4717 111.924 15.3962 111.874 15.283L108.956 9.42136H108.93V15.132C108.93 15.3207 108.779 15.4591 108.603 15.4591H108.54C108.364 15.4591 108.213 15.3081 108.213 15.132V9.05658C108.213 8.74211 108.465 8.49054 108.767 8.49054H108.905C109.119 8.49054 109.308 8.61633 109.408 8.805L111.798 13.5723C112.012 13.9874 112.591 13.9874 112.792 13.5723L115.182 8.805C115.283 8.61633 115.471 8.49054 115.685 8.49054" fill="white"></path><path id="Vector_5" d="M118.239 9.08175C118.239 8.76729 118.49 8.51572 118.792 8.51572H121.911C122.968 8.51572 123.962 9.0566 123.962 10.5283C123.962 11.849 123.106 12.566 121.584 12.566H119.484C119.169 12.566 118.93 12.8176 118.93 13.1321V15.1572C118.93 15.3459 118.779 15.4843 118.603 15.4843H118.54C118.364 15.4843 118.213 15.3333 118.213 15.1572V9.08175H118.239ZM118.943 11.3207C118.943 11.6352 119.195 11.8868 119.496 11.8868H121.672C122.855 11.8868 123.207 11.3333 123.207 10.5157C123.207 9.47169 122.628 9.1698 121.823 9.1698H119.509C119.195 9.1698 118.956 9.42138 118.956 9.73584V11.3082L118.943 11.3207Z" fill="white"></path><path id="Vector_6" d="M128.767 8.327C130.704 8.327 132.478 9.53454 132.478 11.9874C132.478 14.4402 130.704 15.6477 128.767 15.6477C126.83 15.6477 125.056 14.4402 125.056 11.9874C125.056 9.53454 126.83 8.327 128.767 8.327ZM128.767 14.9937C130.264 14.9937 131.71 14.1006 131.71 11.9874C131.71 9.87417 130.264 8.98108 128.767 8.98108C127.27 8.98108 125.823 9.87417 125.823 11.9874C125.823 14.1006 127.27 14.9937 128.767 14.9937Z" fill="white"></path><path id="Vector_7" d="M134.516 8.50314H134.541C134.704 8.50314 134.868 8.57861 134.969 8.71698L139.572 14.4654H139.585V8.84277C139.585 8.65409 139.736 8.51572 139.912 8.51572H139.975C140.151 8.51572 140.302 8.66667 140.302 8.84277V14.9182C140.302 15.2327 140.05 15.4843 139.748 15.4843C139.585 15.4843 139.421 15.4088 139.321 15.2704L134.692 9.52201H134.667V15.1447C134.667 15.3333 134.516 15.4717 134.34 15.4717H134.277C134.101 15.4717 133.95 15.3208 133.95 15.1447V9.06918C133.95 8.75472 134.201 8.50314 134.503 8.50314" fill="white"></path><path id="Vector_8" d="M142.717 8.50307H147.27C147.446 8.50307 147.597 8.65402 147.597 8.83012C147.597 9.00622 147.446 9.15716 147.27 9.15716H143.434C143.119 9.15716 142.88 9.40873 142.88 9.7232V10.9433C142.88 11.2578 143.132 11.5094 143.434 11.5094H147.106C147.283 11.5094 147.434 11.6603 147.434 11.8364C147.434 12.0125 147.283 12.1635 147.106 12.1635H143.434C143.119 12.1635 142.88 12.415 142.88 12.7295V14.2012C142.88 14.5157 143.132 14.7672 143.434 14.7672H147.345C147.522 14.7672 147.673 14.9182 147.673 15.0943C147.673 15.2704 147.522 15.4213 147.345 15.4213H142.717C142.402 15.4213 142.163 15.1697 142.163 14.8553V9.0188C142.163 8.70433 142.415 8.45276 142.717 8.45276" fill="white"></path><path id="Vector_9" d="M149.634 8.50314H149.66C149.823 8.50314 149.987 8.57861 150.087 8.71698L154.691 14.4654H154.704V8.84277C154.704 8.65409 154.855 8.51572 155.031 8.51572H155.094C155.27 8.51572 155.421 8.66667 155.421 8.84277V14.9182C155.421 15.2327 155.169 15.4843 154.867 15.4843C154.704 15.4843 154.54 15.4088 154.439 15.2704L149.81 9.52201H149.785V15.1447C149.785 15.3333 149.634 15.4717 149.458 15.4717H149.395C149.219 15.4717 149.068 15.3208 149.068 15.1447V9.06918C149.068 8.75472 149.32 8.50314 149.622 8.50314" fill="white"></path><path id="Vector_10" d="M158.641 9.1698H156.843C156.667 9.1698 156.516 9.01886 156.516 8.84276C156.516 8.66666 156.667 8.51572 156.843 8.51572H162.251C162.428 8.51572 162.579 8.66666 162.579 8.84276C162.579 9.01886 162.428 9.1698 162.251 9.1698H160.453C160.138 9.1698 159.899 9.42138 159.899 9.73584V15.1446C159.899 15.3333 159.748 15.4717 159.572 15.4717H159.509C159.333 15.4717 159.182 15.3207 159.182 15.1446V9.73584C159.182 9.42138 158.931 9.1698 158.629 9.1698" fill="white"></path><path id="Vector_11" d="M168.578 10.5031C168.427 10.5031 168.289 10.4025 168.264 10.2515C168.062 9.27042 167.169 9.00627 166.163 9.00627C165.069 9.00627 164.226 9.44652 164.226 10.239C164.226 11.1446 165.056 11.3585 166.716 11.6478C167.962 11.8616 169.207 12.1509 169.207 13.4968C169.207 15.2075 167.685 15.6729 166.352 15.6729C164.742 15.6729 163.547 15.1572 163.295 13.5849C163.257 13.3836 163.421 13.1949 163.622 13.1949H163.685C163.836 13.1949 163.974 13.3082 163.999 13.4591C164.213 14.7044 165.131 15.0063 166.352 15.0063C167.37 15.0063 168.44 14.717 168.44 13.6226C168.44 12.5283 167.194 12.4277 165.949 12.2264C164.326 11.9622 163.459 11.4968 163.459 10.3648C163.459 8.84274 164.83 8.3396 166.15 8.3396C167.471 8.3396 168.716 8.76727 168.955 10.1258C168.993 10.327 168.83 10.5157 168.628 10.5157H168.565L168.578 10.5031Z" fill="white"></path><path id="Vector_12" d="M6.47786 11.1446C6.23887 11.1446 6.03761 10.9811 5.94956 10.7547C5.66025 9.99996 4.94327 9.63518 4.10051 9.63518C2.3395 9.63518 1.96215 11.044 1.96215 11.9874C1.96215 12.9308 2.3395 14.3396 4.10051 14.3396C4.88038 14.3396 5.64768 14 5.94956 13.1824C6.03761 12.9559 6.23887 12.7924 6.47786 12.7924H7.37094C7.7483 12.7924 8.02503 13.1824 7.89925 13.5471C7.38352 15.0314 5.91183 15.6729 4.02504 15.6729C1.53447 15.6729 -0.0126953 14.5786 -0.0126953 11.9874C-0.0126953 9.39619 1.53447 8.30185 4.02504 8.30185C5.48415 8.30185 7.29547 8.64147 7.87409 10.3899C7.99988 10.7547 7.72315 11.132 7.34579 11.132H6.46529L6.47786 11.1446Z" fill="white"></path><path id="Vector_13" d="M13.3082 8.31442C16.9812 8.31442 17.5598 10.5408 17.5598 12C17.5598 13.4591 16.9812 15.6855 13.3082 15.6855C9.63526 15.6855 9.05664 13.4591 9.05664 12C9.05664 10.5408 9.63526 8.31442 13.3082 8.31442ZM13.3082 14.3522C14.9937 14.3522 15.5849 13.0817 15.5849 12C15.5849 10.9182 14.9937 9.64776 13.3082 9.64776C11.6227 9.64776 11.0315 10.9182 11.0315 12C11.0315 13.0817 11.6227 14.3522 13.3082 14.3522Z" fill="white"></path><path id="Vector_14" d="M19.509 8.50314H20.2512C20.5656 8.50314 20.8046 8.75472 20.8046 9.06918V13.522C20.8046 13.8365 21.0562 14.088 21.3581 14.088H24.4021C24.7166 14.088 24.9556 14.3396 24.9556 14.6541V14.9057C24.9556 15.2201 24.704 15.4717 24.4021 15.4717H19.509C19.1946 15.4717 18.9556 15.2201 18.9556 14.9057V9.06918C18.9556 8.75472 19.2071 8.50314 19.509 8.50314Z" fill="white"></path><path id="Vector_15" d="M26.8176 8.50314H27.5598C27.8742 8.50314 28.1132 8.75472 28.1132 9.06918V12.5031C28.1132 13.1824 28.1384 14.3396 29.8491 14.3396C31.5598 14.3396 31.5849 13.1824 31.5849 12.5031V9.06918C31.5849 8.75472 31.8365 8.50314 32.1384 8.50314H32.8805C33.195 8.50314 33.434 8.75472 33.434 9.06918V12.9686C33.434 13.7484 33.3333 15.6604 29.8491 15.6604C26.3648 15.6604 26.2642 13.7484 26.2642 12.9686V9.06918C26.2642 8.75472 26.5157 8.50314 26.8176 8.50314Z" fill="white"></path><path id="Vector_16" d="M42.2765 8.50314H44.0752C44.3897 8.50314 44.6287 8.75472 44.6287 9.06918V14.9057C44.6287 15.2201 44.3771 15.4717 44.0752 15.4717H43.396C43.0815 15.4717 42.8425 15.2201 42.8425 14.9057V9.88679H42.8174L40.7922 15.1195C40.7042 15.3333 40.5029 15.4843 40.2765 15.4843H39.484C39.2576 15.4843 39.0438 15.3459 38.9683 15.1195L36.9432 9.88679H36.918V14.9057C36.918 15.2201 36.6664 15.4717 36.3645 15.4717H35.6853C35.3708 15.4717 35.1318 15.2201 35.1318 14.9057V9.06918C35.1318 8.75472 35.3834 8.50314 35.6853 8.50314H37.484C37.7104 8.50314 37.9117 8.64151 37.9998 8.85534L39.3708 12.2516C39.5595 12.717 40.2136 12.717 40.4023 12.2516L41.7733 8.85534C41.8614 8.64151 42.0626 8.50314 42.2891 8.50314" fill="white"></path><path id="Vector_17" d="M46.415 9.08175C46.415 8.76729 46.6666 8.51572 46.9685 8.51572H51.5345C52.5282 8.51572 53.4591 8.98113 53.4591 10.2767C53.4591 10.8176 53.1949 11.4717 52.5534 11.6729V11.6981C53.3458 11.8365 53.7735 12.6415 53.7735 13.3836C53.7735 14.3145 53.3458 15.4968 51.283 15.4968H46.9685C46.654 15.4968 46.415 15.2453 46.415 14.9308V9.09433V9.08175ZM48.2767 10.717C48.2767 11.0314 48.5282 11.283 48.8301 11.283H50.8553C51.283 11.283 51.5597 11.044 51.5597 10.5283C51.5597 10.088 51.371 9.77358 50.6037 9.77358H48.8427C48.5282 9.77358 48.2892 10.0252 48.2892 10.3396V10.7044L48.2767 10.717ZM48.2767 13.5849C48.2767 13.8994 48.5282 14.1509 48.8301 14.1509H51.0062C51.5848 14.1509 51.7987 13.7736 51.7987 13.3333C51.7987 12.7799 51.4591 12.4906 50.8175 12.4906H48.8301C48.5157 12.4906 48.2767 12.7421 48.2767 13.0566V13.5723V13.5849Z" fill="white"></path><path id="Vector_18" d="M55.8738 8.50314H56.6159C56.9304 8.50314 57.1694 8.75472 57.1694 9.06918V12.5031C57.1694 13.1824 57.1945 14.3396 58.9052 14.3396C60.6159 14.3396 60.6411 13.1824 60.6411 12.5031V9.06918C60.6411 8.75472 60.8926 8.50314 61.1945 8.50314H61.9367C62.2511 8.50314 62.4901 8.75472 62.4901 9.06918V12.9686C62.4901 13.7484 62.3895 15.6604 58.9052 15.6604C55.4209 15.6604 55.3203 13.7484 55.3203 12.9686V9.06918C55.3203 8.75472 55.5719 8.50314 55.8738 8.50314Z" fill="white"></path><path id="Vector_19" d="M69.2325 10.5283C69.0187 10.5283 68.8174 10.4025 68.7294 10.2139C68.4778 9.59751 67.7482 9.52204 67.0942 9.52204C66.3269 9.52204 65.8363 9.87424 65.8363 10.3397C65.8363 10.717 66.1382 10.9183 66.6162 10.9937L68.9432 11.3711C70.1885 11.5724 71.1319 12.0503 71.1319 13.3208C71.1319 14.5912 70.2765 15.6604 67.5847 15.6604C66.1256 15.6604 64.2766 15.4969 63.8363 13.9749C63.7357 13.6227 64.0124 13.2705 64.3772 13.2705H65.3709C65.5973 13.2705 65.8111 13.4088 65.8866 13.6352C66.113 14.2768 66.8929 14.39 67.5847 14.39C68.4526 14.39 69.0438 14.1258 69.0438 13.522C69.0438 12.9812 68.6287 12.8428 67.8866 12.717L66.1885 12.4529C65.0061 12.2642 63.8615 11.8994 63.8615 10.478C63.8615 8.91827 65.1067 8.28934 67.2451 8.28934C68.4275 8.28934 70.1004 8.46544 70.6665 9.71072C70.8426 10.0881 70.5533 10.5158 70.1508 10.5158H69.2199L69.2325 10.5283Z" fill="white"></path></g><defs><clipPath id="clip0_2781_24371"><rect width="169.207" height="24" fill="white"></rect></clipPath></defs></svg>