<svg xmlns:xlink="http://www.w3.org/1999/xlink" width="124" height="32" viewBox="0 0 124 32" fill="none" xmlns="http://www.w3.org/2000/svg" class="brand" data-v-83643949=""><g clip-path="url(#clip0_2781_25062)" fill="none"><path d="M15.2788 24C14.6247 24 14.0545 24.4193 13.8365 25.0398C13.065 27.3375 10.9686 28.8805 8.58701 28.8805C7.06081 28.8805 5.58492 28.2264 4.52831 27.0692C3.47171 25.912 2.95179 24.3858 3.05242 22.7925C3.25368 20.0252 5.43397 17.7778 8.15095 17.5598C10.6834 17.3753 13.0147 18.935 13.8197 21.3837C14.021 22.0042 14.608 22.4235 15.2621 22.4235C15.7652 22.4235 16.218 22.1887 16.5032 21.7694C16.7883 21.3501 16.8721 20.8302 16.7044 20.3438C16.4193 19.4885 16 18.6835 15.4633 17.9623C15.044 17.392 14.826 16.7044 14.826 15.9832C14.826 15.2621 15.044 14.5744 15.4633 14.0042C16 13.283 16.4025 12.478 16.7044 11.6227C16.8721 11.1363 16.7883 10.6164 16.5032 10.1971C16.218 9.77779 15.7652 9.54299 15.2621 9.54299C14.608 9.54299 14.0377 9.96228 13.8197 10.5828C12.9979 13.0315 10.6667 14.5912 8.15095 14.4067C5.43397 14.2055 3.25368 11.9581 3.05242 9.17402C2.93502 7.58073 3.45494 6.07129 4.52831 4.89729C5.56815 3.75683 7.06081 3.08597 8.58701 3.08597C10.9518 3.08597 13.065 4.62895 13.8365 6.92664C14.0377 7.54719 14.6247 7.96647 15.2788 7.96647C15.7652 7.96647 16.2348 7.7149 16.5199 7.31239C16.805 6.90987 16.8721 6.40672 16.7212 5.92035C15.4633 2.18031 11.8742 -0.251556 7.98324 0.0167875C3.70651 0.318674 0.285128 3.85746 0.0167847 8.21805C-0.100616 10.0461 0.335443 11.8239 1.27465 13.3669C1.76102 14.1552 2.01259 15.0608 2.01259 15.9832C2.01259 16.9057 1.76102 17.8113 1.27465 18.5996C0.335443 20.1593 -0.100616 21.9539 0.0167847 23.7652C0.285128 28.1426 3.70651 31.6646 7.98324 31.9665C11.8742 32.2516 15.4633 29.803 16.7212 26.0294C16.8721 25.5598 16.805 25.0566 16.5199 24.6373C16.2348 24.2348 15.7652 23.9832 15.2788 23.9832" fill="#999"></path><path d="M28.5114 24.3187C28.7965 24.3187 28.9978 24.587 28.9307 24.8553C28.5114 26.6834 26.9014 28.0922 24.5198 28.0922C21.568 28.0922 19.6729 26.1971 19.6729 23.2117C19.6729 21.0818 20.9643 18.3312 24.5198 18.3312C26.3479 18.3312 28.3269 19.1195 28.8469 21.1488C28.9139 21.434 28.7127 21.7023 28.4276 21.7023H28.3773C28.176 21.7023 27.9915 21.5681 27.9412 21.3836C27.5387 19.8407 26.0628 19.2201 24.5198 19.2201C22.2557 19.2201 20.6959 20.5115 20.6959 23.2285C20.6959 25.3082 21.7525 27.2369 24.5198 27.2369C26.5492 27.2369 27.6058 26.2642 28.0083 24.6876C28.0586 24.4864 28.2263 24.3354 28.4276 24.3354H28.5114V24.3187Z" fill="#999"></path><path d="M35.6226 18.3312C38.2054 18.3312 40.5702 19.9413 40.5702 23.2117C40.5702 26.4822 38.2054 28.0922 35.6226 28.0922C33.0398 28.0922 30.675 26.4822 30.675 23.2117C30.675 19.9413 33.0398 18.3312 35.6226 18.3312ZM35.6226 27.2201C37.6184 27.2201 39.5472 26.0294 39.5472 23.2117C39.5472 20.3941 37.6184 19.2034 35.6226 19.2034C33.6268 19.2034 31.6981 20.3941 31.6981 23.2117C31.6981 26.0294 33.6268 27.2201 35.6226 27.2201Z" fill="#999"></path><path d="M52.478 18.566H52.6122C53.0314 18.566 53.3501 18.9015 53.3501 19.3207V27.4214C53.3501 27.6729 53.1488 27.8574 52.914 27.8574H52.8302C52.5954 27.8574 52.3941 27.6562 52.3941 27.4214V19.8239H52.3606L48.4696 27.6226C48.4025 27.7736 48.2516 27.8574 48.0839 27.8574H47.7484C47.5807 27.8574 47.4298 27.7568 47.3627 27.6059L43.4717 19.7903H43.4382V27.4046C43.4382 27.6562 43.2369 27.8407 43.0021 27.8407H42.9182C42.6834 27.8407 42.4822 27.6394 42.4822 27.4046V19.304C42.4822 18.8847 42.8176 18.5493 43.2201 18.5493H43.4046C43.6897 18.5493 43.9413 18.717 44.0755 18.9685L47.2621 25.3249C47.5472 25.8784 48.3187 25.8784 48.587 25.3249L51.7736 18.9685C51.9078 18.717 52.1593 18.5493 52.4444 18.5493" fill="#999"></path><path d="M55.8324 19.3208C55.8324 18.9015 56.1678 18.5661 56.5703 18.5661H60.7296C62.1384 18.5661 63.4634 19.2872 63.4634 21.2495C63.4634 23.0105 62.3229 23.9665 60.2936 23.9665H57.4927C57.0735 23.9665 56.7548 24.3019 56.7548 24.7212V27.4214C56.7548 27.673 56.5535 27.8575 56.3187 27.8575H56.2349C56.0001 27.8575 55.7988 27.6562 55.7988 27.4214V19.3208H55.8324ZM56.7716 22.3061C56.7716 22.7254 57.107 23.0608 57.5095 23.0608H60.411C61.9875 23.0608 62.4571 22.3229 62.4571 21.2327C62.4571 19.8407 61.6856 19.4382 60.6122 19.4382H57.5263C57.107 19.4382 56.7883 19.7736 56.7883 20.1929V22.2893L56.7716 22.3061Z" fill="#999"></path><path d="M69.8868 18.3312C72.4696 18.3312 74.8344 19.9413 74.8344 23.2117C74.8344 26.4822 72.4696 28.0922 69.8868 28.0922C67.304 28.0922 64.9392 26.4822 64.9392 23.2117C64.9392 19.9413 67.304 18.3312 69.8868 18.3312ZM69.8868 27.2201C71.8826 27.2201 73.8113 26.0294 73.8113 23.2117C73.8113 20.3941 71.8826 19.2034 69.8868 19.2034C67.891 19.2034 65.9623 20.3941 65.9623 23.2117C65.9623 26.0294 67.891 27.2201 69.8868 27.2201Z" fill="#999"></path><path d="M77.5513 18.5661H77.5849C77.8029 18.5661 78.0209 18.6667 78.1551 18.8512L84.2935 26.5158H84.3103V19.0189C84.3103 18.7673 84.5115 18.5828 84.7463 18.5828H84.8302C85.065 18.5828 85.2662 18.7841 85.2662 19.0189V27.1195C85.2662 27.5388 84.9308 27.8742 84.5283 27.8742C84.3103 27.8742 84.0922 27.7736 83.9581 27.5891L77.7861 19.9246H77.7526V27.4214C77.7526 27.673 77.5513 27.8575 77.3165 27.8575H77.2327C76.9979 27.8575 76.7966 27.6562 76.7966 27.4214V19.3208C76.7966 18.9015 77.1321 18.5661 77.5346 18.5661" fill="#999"></path><path d="M88.4862 18.566H94.5575C94.7923 18.566 94.9936 18.7673 94.9936 19.0021C94.9936 19.2369 94.7923 19.4382 94.5575 19.4382H89.4422C89.0229 19.4382 88.7043 19.7736 88.7043 20.1929V21.8197C88.7043 22.239 89.0397 22.5744 89.4422 22.5744H94.3395C94.5743 22.5744 94.7755 22.7757 94.7755 23.0105C94.7755 23.2453 94.5743 23.4466 94.3395 23.4466H89.4422C89.0229 23.4466 88.7043 23.782 88.7043 24.2013V26.1635C88.7043 26.5828 89.0397 26.9182 89.4422 26.9182H94.6581C94.8929 26.9182 95.0942 27.1195 95.0942 27.3543C95.0942 27.5891 94.8929 27.7904 94.6581 27.7904H88.4862C88.0669 27.7904 87.7483 27.4549 87.7483 27.0357V19.2537C87.7483 18.8344 88.0837 18.499 88.4862 18.499" fill="#999"></path><path d="M97.7108 18.5661H97.7443C97.9623 18.5661 98.1804 18.6667 98.3145 18.8512L104.453 26.5158H104.47V19.0189C104.47 18.7673 104.671 18.5828 104.906 18.5828H104.99C105.224 18.5828 105.426 18.7841 105.426 19.0189V27.1195C105.426 27.5388 105.09 27.8742 104.688 27.8742C104.47 27.8742 104.252 27.7736 104.117 27.5891L97.9456 19.9246H97.912V27.4214C97.912 27.673 97.7108 27.8575 97.476 27.8575H97.3921C97.1573 27.8575 96.9561 27.6562 96.9561 27.4214V19.3208C96.9561 18.9015 97.2915 18.5661 97.694 18.5661" fill="#999"></path><path d="M109.702 19.4549H107.304C107.069 19.4549 106.868 19.2537 106.868 19.0189C106.868 18.7841 107.069 18.5828 107.304 18.5828H114.516C114.751 18.5828 114.952 18.7841 114.952 19.0189C114.952 19.2537 114.751 19.4549 114.516 19.4549H112.117C111.698 19.4549 111.379 19.7903 111.379 20.2096V27.4214C111.379 27.6729 111.178 27.8574 110.943 27.8574H110.86C110.625 27.8574 110.423 27.6562 110.423 27.4214V20.2096C110.423 19.7903 110.088 19.4549 109.686 19.4549" fill="#999"></path><path d="M122.969 21.2159C122.767 21.2159 122.583 21.0818 122.549 20.8805C122.281 19.5723 121.09 19.2201 119.748 19.2201C118.289 19.2201 117.166 19.8071 117.166 20.8637C117.166 22.0713 118.272 22.3564 120.486 22.7421C122.147 23.0273 123.807 23.413 123.807 25.2075C123.807 27.4885 121.778 28.109 120 28.109C117.853 28.109 116.26 27.4214 115.925 25.3249C115.874 25.0566 116.092 24.805 116.361 24.805H116.444C116.646 24.805 116.83 24.956 116.864 25.1572C117.149 26.8176 118.373 27.2201 120 27.2201C121.358 27.2201 122.784 26.8344 122.784 25.3753C122.784 23.9161 121.124 23.782 119.463 23.5136C117.3 23.1614 116.143 22.5409 116.143 21.0314C116.143 19.0021 117.971 18.3312 119.732 18.3312C121.493 18.3312 123.153 18.9015 123.472 20.7128C123.522 20.9811 123.304 21.2327 123.036 21.2327H122.952L122.969 21.2159Z" fill="#999"></path><path d="M28.3269 7.64778C28.0083 7.64778 27.7399 7.42975 27.6225 7.12786C27.2368 6.12157 26.2808 5.6352 25.1571 5.6352C22.8091 5.6352 22.306 7.51361 22.306 8.77147C22.306 10.0293 22.8091 11.9077 25.1571 11.9077C26.197 11.9077 27.22 11.4549 27.6225 10.3648C27.7399 10.0629 28.0083 9.84484 28.3269 9.84484H29.5177C30.0209 9.84484 30.3898 10.3648 30.2221 10.8511C29.5345 12.8302 27.5722 13.6855 25.0565 13.6855C21.7357 13.6855 19.6729 12.2264 19.6729 8.77147C19.6729 5.31654 21.7357 3.85742 25.0565 3.85742C27.002 3.85742 29.4171 4.31025 30.1886 6.64149C30.3563 7.12786 29.9873 7.63101 29.4842 7.63101H28.3102L28.3269 7.64778Z" fill="#999"></path><path d="M37.4173 3.85742C42.3146 3.85742 43.0861 6.82598 43.0861 8.77147C43.0861 10.717 42.3146 13.6855 37.4173 13.6855C32.52 13.6855 31.7485 10.717 31.7485 8.77147C31.7485 6.82598 32.52 3.85742 37.4173 3.85742ZM37.4173 11.9077C39.6647 11.9077 40.4529 10.2138 40.4529 8.77147C40.4529 7.32912 39.6647 5.6352 37.4173 5.6352C35.1699 5.6352 34.3817 7.32912 34.3817 8.77147C34.3817 10.2138 35.1699 11.9077 37.4173 11.9077Z" fill="#999"></path><path d="M45.6855 4.12576H46.675C47.0943 4.12576 47.4129 4.46119 47.4129 4.88048V10.8176C47.4129 11.2369 47.7483 11.5723 48.1509 11.5723H52.2096C52.6288 11.5723 52.9475 11.9077 52.9475 12.327V12.6624C52.9475 13.0817 52.6121 13.4172 52.2096 13.4172H45.6855C45.2662 13.4172 44.9475 13.0817 44.9475 12.6624V4.88048C44.9475 4.46119 45.2829 4.12576 45.6855 4.12576Z" fill="#999"></path><path d="M55.4298 4.12576H56.4194C56.8386 4.12576 57.1573 4.46119 57.1573 4.88048V9.4591C57.1573 10.3648 57.1908 11.9077 59.4718 11.9077C61.7527 11.9077 61.7862 10.3648 61.7862 9.4591V4.88048C61.7862 4.46119 62.1217 4.12576 62.5242 4.12576H63.5137C63.933 4.12576 64.2516 4.46119 64.2516 4.88048V10.0796C64.2516 11.1195 64.1175 13.6687 59.4718 13.6687C54.8261 13.6687 54.6919 11.1195 54.6919 10.0796V4.88048C54.6919 4.46119 55.0273 4.12576 55.4298 4.12576Z" fill="#999"></path><path d="M76.0587 4.12576H78.457C78.8763 4.12576 79.1949 4.46119 79.1949 4.88048V12.6625C79.1949 13.0817 78.8595 13.4172 78.457 13.4172H77.5513C77.1321 13.4172 76.8134 13.0817 76.8134 12.6625V5.97063H76.7798L74.0796 12.9476C73.9622 13.2327 73.6939 13.4339 73.392 13.4339H72.3354C72.0335 13.4339 71.7484 13.2495 71.6478 12.9476L68.9476 5.97063H68.914V12.6625C68.914 13.0817 68.5786 13.4172 68.1761 13.4172H67.2704C66.8511 13.4172 66.5325 13.0817 66.5325 12.6625V4.88048C66.5325 4.46119 66.8679 4.12576 67.2704 4.12576H69.6687C69.9706 4.12576 70.239 4.31025 70.3564 4.59536L72.1845 9.12367C72.436 9.74421 73.3082 9.74421 73.5597 9.12367L75.3878 4.59536C75.5052 4.31025 75.7736 4.12576 76.0754 4.12576" fill="#999"></path><path d="M81.5764 4.88048C81.5764 4.46119 81.9118 4.12576 82.3144 4.12576H88.4024C89.7274 4.12576 90.9684 4.74631 90.9684 6.47377C90.9684 7.19495 90.6162 8.06706 89.7609 8.33541V8.36895C90.8175 8.55344 91.3877 9.62681 91.3877 10.6163C91.3877 11.8574 90.8343 13.4339 88.067 13.4339H82.3144C81.8951 13.4339 81.5764 13.0985 81.5764 12.6792V4.88048ZM84.0586 7.06077C84.0586 7.48006 84.394 7.81549 84.7965 7.81549H87.4967C88.067 7.81549 88.436 7.49683 88.436 6.8092C88.436 6.2222 88.1844 5.80291 87.1613 5.80291H84.8133C84.394 5.80291 84.0754 6.13834 84.0754 6.55763V7.044L84.0586 7.06077ZM84.0586 10.8847C84.0586 11.304 84.394 11.6394 84.7965 11.6394H87.698C88.4695 11.6394 88.7546 11.1362 88.7546 10.5492C88.7546 9.8113 88.3018 9.42555 87.4464 9.42555H84.7965C84.3773 9.42555 84.0586 9.76098 84.0586 10.1803V10.8679V10.8847Z" fill="#999"></path><path d="M94.1886 4.12576H95.1781C95.5974 4.12576 95.9161 4.46119 95.9161 4.88048V9.4591C95.9161 10.3648 95.9496 11.9077 98.2306 11.9077C100.511 11.9077 100.545 10.3648 100.545 9.4591V4.88048C100.545 4.46119 100.88 4.12576 101.283 4.12576H102.272C102.692 4.12576 103.01 4.46119 103.01 4.88048V10.0796C103.01 11.1195 102.876 13.6687 98.2306 13.6687C93.5849 13.6687 93.4507 11.1195 93.4507 10.0796V4.88048C93.4507 4.46119 93.7861 4.12576 94.1886 4.12576Z" fill="#999"></path><path d="M112 6.82599C111.715 6.82599 111.446 6.65828 111.329 6.40671C110.994 5.5849 110.021 5.48427 109.149 5.48427C108.126 5.48427 107.472 5.95388 107.472 6.57442C107.472 7.07756 107.874 7.34591 108.511 7.44654L111.614 7.94968C113.275 8.21803 114.532 8.85534 114.532 10.5493C114.532 12.2432 113.392 13.6688 109.803 13.6688C107.857 13.6688 105.392 13.4507 104.805 11.4214C104.671 10.9518 105.04 10.4822 105.526 10.4822H106.851C107.153 10.4822 107.438 10.6667 107.539 10.9685C107.841 11.8239 108.88 11.9748 109.803 11.9748C110.96 11.9748 111.748 11.6226 111.748 10.8176C111.748 10.0964 111.195 9.91195 110.205 9.74423L107.941 9.39203C106.365 9.14046 104.838 8.65408 104.838 6.75891C104.838 4.67924 106.499 3.84067 109.35 3.84067C110.927 3.84067 113.157 4.07547 113.912 5.73585C114.147 6.23899 113.761 6.80922 113.224 6.80922H111.983L112 6.82599Z" fill="#999"></path></g><defs><clipPath id="clip0_2781_25062"><rect width="123.807" height="32" fill="white"></rect></clipPath></defs></svg>